{
	"accessors": [
		{
			"bufferView": 0,
			"byteOffset": 0,
			"componentType": 5126,
			"count": 24,
			"max": [
				0.5,
				0.5,
				0.5
			],
			"min": [
				-0.5,
				-0.5,
				-0.5
			],
			"type": "VEC3"
		},
		{
			"bufferView": 1,
			"byteOffset": 0,
			"componentType": 5126,
			"count": 24,
			"max": [
				1.0,
				1.0,
				1.0
			],
			"min": [
				-1.0,
				-1.0,
				-1.0
			],
			"type": "VEC3"
		},
		{
			"bufferView": 2,
			"byteOffset": 0,
			"componentType": 5126,
			"count": 24,
			"max": [
				0.0,
				0.0,
				1.0,
				1.0
			],
			"min": [
				-1.0,
				0.0,
				-1.0,
				1.0
			],
			"type": "VEC4"
		},
		{
			"bufferView": 3,
			"byteOffset": 0,
			"componentType": 5126,
			"count": 24,
			"max": [
				1.0,
				1.0
			],
			"min": [
				0.0,
				0.0
			],
			"type": "VEC2"
		},
		{
			"bufferView": 4,
			"byteOffset": 0,
			"componentType": 5126,
			"count": 24,
			"max": [
				0.9966580867767334,
				0.9959442615509033
			],
			"min": [
				0.004055766388773918,
				0.3471641540527344
			],
			"type": "VEC2"
		},
		{
			"bufferView": 5,
			"byteOffset": 0,
			"componentType": 5121,
			"count": 36,
			"max": [
				23.0
			],
			"min": [
				0.0
			],
			"type": "SCALAR"
		}
	],
	"asset": {
		"generator": "Gestaltor 2020.2.1 Alpha 'Zuckerwatte' (CI-38fb8ee1*)",
		"version": "2.0"
	},
	"bufferViews": [
		{
			"buffer": 0,
			"byteLength": 288,
			"byteOffset": 0
		},
		{
			"buffer": 0,
			"byteLength": 288,
			"byteOffset": 288
		},
		{
			"buffer": 0,
			"byteLength": 384,
			"byteOffset": 576
		},
		{
			"buffer": 0,
			"byteLength": 192,
			"byteOffset": 960
		},
		{
			"buffer": 0,
			"byteLength": 192,
			"byteOffset": 1152
		},
		{
			"buffer": 0,
			"byteLength": 36,
			"byteOffset": 1344
		}
	],
	"buffers": [
		{
			"byteLength": 1380,
			"uri": "Cube.bin"
		}
	],
	"cameras": [
		{
			"perspective": {
				"yfov": 0.8,
				"zfar": 50.0,
				"znear": 0.001
			},
			"type": "perspective"
		}
	],
	"images": [
		{
			"mimeType": "image/png",
			"name": "bud_A_mirror_002",
			"uri": "bud_A_mirror_002.png"
		}
	],
	"materials": [
		{
			"doubleSided": false,
			"emissiveFactor": [
				1.0,
				1.0,
				1.0
			],
			"emissiveTexture": {
				"index": 0
			},
			"name": "budynek_A 5"
		}
	],
	"meshes": [
		{
			"name": "Cube",
			"primitives": [
				{
					"attributes": {
						"NORMAL": 1,
						"POSITION": 0,
						"TANGENT": 2,
						"TEXCOORD_0": 3,
						"TEXCOORD_1": 4
					},
					"indices": 5,
					"material": 0,
					"mode": 4
				}
			]
		}
	],
	"nodes": [
		{
			"mesh": 0,
			"name": "Cube",
			"rotation": [
				0.0,
				0.0,
				0.0,
				-1.0
			],
			"scale": [
				8.717,
				8.717,
				8.717
			],
			"translation": [
				0.0039385,
				4.96,
				3.7
			]
		}
	],
	"samplers": [
		{}
	],
	"scene": 0,
	"scenes": [
		{
			"name": "Cube",
			"nodes": [
				0
			]
		}
	],
	"textures": [
		{
			"name": "bud_A_mirror_002",
			"sampler": 0,
			"source": 0
		}
	]
}