{
	"accessors": [
		{
			"bufferView": 0,
			"byteOffset": 0,
			"componentType": 5126,
			"count": 54,
			"type": "VEC2"
		},
		{
			"bufferView": 1,
			"byteOffset": 0,
			"componentType": 5126,
			"count": 54,
			"max": [
				0.5,
				0.5,
				0.5
			],
			"min": [
				-0.5,
				-0.5,
				-0.5
			],
			"type": "VEC3"
		},
		{
			"bufferView": 2,
			"byteOffset": 0,
			"componentType": 5126,
			"count": 54,
			"type": "VEC3"
		},
		{
			"bufferView": 3,
			"byteOffset": 0,
			"componentType": 5126,
			"count": 54,
			"type": "VEC2"
		},
		{
			"bufferView": 4,
			"byteOffset": 0,
			"componentType": 5123,
			"count": 144,
			"type": "SCALAR"
		},
		{
			"bufferView": 5,
			"byteOffset": 0,
			"componentType": 5126,
			"count": 3509,
			"type": "VEC2"
		},
		{
			"bufferView": 6,
			"byteOffset": 0,
			"componentType": 5126,
			"count": 3509,
			"type": "VEC2"
		},
		{
			"bufferView": 7,
			"byteOffset": 0,
			"componentType": 5126,
			"count": 3509,
			"type": "VEC3"
		},
		{
			"bufferView": 8,
			"byteOffset": 0,
			"componentType": 5126,
			"count": 3509,
			"max": [
				72.838134765625,
				143.69198608398438,
				258.82000732421875
			],
			"min": [
				-72.838134765625,
				-395.850830078125,
				-1.2295242547988892
			],
			"type": "VEC3"
		},
		{
			"bufferView": 9,
			"byteOffset": 0,
			"componentType": 5126,
			"count": 3509,
			"type": "VEC2"
		},
		{
			"bufferView": 10,
			"byteOffset": 0,
			"componentType": 5126,
			"count": 3509,
			"type": "VEC4"
		},
		{
			"bufferView": 11,
			"byteOffset": 0,
			"componentType": 5123,
			"count": 15606,
			"type": "SCALAR"
		}
	],
	"asset": {
		"generator": "Gestaltor 2020.2.1 Alpha 'Zuckerwatte' (CI-38fb8ee1*)",
		"version": "2.0"
	},
	"bufferViews": [
		{
			"buffer": 0,
			"byteLength": 432,
			"byteOffset": 0
		},
		{
			"buffer": 0,
			"byteLength": 648,
			"byteOffset": 432
		},
		{
			"buffer": 0,
			"byteLength": 648,
			"byteOffset": 1080
		},
		{
			"buffer": 0,
			"byteLength": 432,
			"byteOffset": 1728
		},
		{
			"buffer": 0,
			"byteLength": 288,
			"byteOffset": 2160
		},
		{
			"buffer": 0,
			"byteLength": 28072,
			"byteOffset": 2448
		},
		{
			"buffer": 0,
			"byteLength": 28072,
			"byteOffset": 30520
		},
		{
			"buffer": 0,
			"byteLength": 42108,
			"byteOffset": 58592
		},
		{
			"buffer": 0,
			"byteLength": 42108,
			"byteOffset": 100700
		},
		{
			"buffer": 0,
			"byteLength": 28072,
			"byteOffset": 142808
		},
		{
			"buffer": 0,
			"byteLength": 56144,
			"byteOffset": 170880
		},
		{
			"buffer": 0,
			"byteLength": 31212,
			"byteOffset": 227024
		}
	],
	"buffers": [
		{
			"byteLength": 258236,
			"uri": "Cube.bin"
		}
	],
	"images": [
		{
			"mimeType": "image/png",
			"name": "bud_A_mirror_002",
			"uri": "bud_A_mirror_002.png"
		},
		{
			"mimeType": "image/png",
			"name": "Material_21_normal",
			"uri": "Material_21_normal.png"
		},
		{
			"mimeType": "image/png",
			"name": "Material_21_baseColor",
			"uri": "Material_21_baseColor.png"
		}
	],
	"materials": [
		{
			"emissiveFactor": [
				1.0,
				1.0,
				1.0
			],
			"emissiveTexture": {
				"index": 0,
				"texCoord": 0
			},
			"name": "budynek_A 5",
			"pbrMetallicRoughness": {
				"baseColorFactor": [
					1.0,
					1.0,
					1.0,
					1.0
				],
				"metallicFactor": 1.0,
				"roughnessFactor": 1.0
			}
		},
		{
			"name": "Material_21_COLOR_0",
			"normalTexture": {
				"index": 1,
				"scale": 1.0,
				"texCoord": 0
			},
			"pbrMetallicRoughness": {
				"baseColorTexture": {
					"index": 2,
					"texCoord": 0
				},
				"metallicFactor": 0.0,
				"roughnessFactor": 0.5008574724197388
			}
		}
	],
	"meshes": [
		{
			"name": "Cube.001",
			"primitives": [
				{
					"attributes": {
						"NORMAL": 2,
						"POSITION": 1,
						"TEXCOORD_0": 0,
						"TEXCOORD_1": 3
					},
					"indices": 4,
					"material": 0,
					"mode": 4
				}
			]
		},
		{
			"name": "polySurface55_Material #21_0",
			"primitives": [
				{
					"attributes": {
						"COLOR_0": 10,
						"NORMAL": 7,
						"POSITION": 8,
						"TEXCOORD_0": 5,
						"TEXCOORD_1": 6,
						"TEXCOORD_2": 9
					},
					"indices": 11,
					"material": 1,
					"mode": 4
				}
			]
		}
	],
	"nodes": [
		{
			"mesh": 0,
			"name": "Cube",
			"scale": [
				8.717000007629395,
				8.716998100280762,
				8.716998100280762
			],
			"translation": [
				0.003938499838113785,
				4.959999084472656,
				15.755144119262695
			]
		},
		{
			"mesh": 1,
			"name": "polySurface55_Material #21_0"
		},
		{
			"children": [
				1
			],
			"name": "polySurface55"
		},
		{
			"children": [
				2
			],
			"name": "polySurface52"
		},
		{
			"children": [
				3
			],
			"name": "polySurface49"
		},
		{
			"children": [
				4
			],
			"name": "CH_trex",
			"rotation": [
				0.0,
				-0.7071068286895752,
				-0.7071068286895752,
				5.338508657359853e-08
			],
			"scale": [
				0.10000000149011612,
				0.10000000149011612,
				0.10000000149011612
			]
		},
		{
			"name": "polySurface58"
		},
		{
			"children": [
				5,
				6
			],
			"name": "RootNode"
		},
		{
			"children": [
				0,
				7
			],
			"name": "trex-finish.FBX",
			"rotation": [
				0.7071068286895752,
				0.0,
				0.0,
				0.7071068286895752
			]
		},
		{
			"children": [
				8
			],
			"name": "RootNode (model correction matrix)"
		},
		{
			"children": [
				9
			],
			"name": "RootNode (gltf orientation matrix)",
			"rotation": [
				-0.7071067690849304,
				0.0,
				0.0,
				0.7071067690849304
			]
		}
	],
	"scene": 0,
	"scenes": [
		{
			"name": "Scene",
			"nodes": [
				10
			]
		}
	],
	"textures": [
		{
			"source": 0
		},
		{
			"source": 1
		},
		{
			"source": 2
		}
	]
}