{
    "asset" : {
        "generator" : "Khronos glTF Blender I/O v1.2.20",
        "version" : "2.0"
    },
    "scene" : 0,
    "scenes" : [
        {
            "nodes" : [
                0,
                1,
                2,
                3,
                4
            ],
            "name" : "Scene"
        }
    ],
    "nodes" : [
        {
            "mesh" : 0,
            "name" : "007_Layer:_01 ZEWN Putz003"
        },
        {
            "mesh" : 1,
            "name" : "crp_vm_v1_183Shape"
        },
        {
            "mesh" : 2,
            "name" : "crp_Porsche911carrera"
        },
        {
            "mesh" : 3,
            "name" : "crp_GrowFX371"
        },
        {
            "mesh" : 4,
            "name" : "005_Layer:_01 Teren Trawa 004"
        }
    ],
    "animations" : [
        {
            "samplers" : [
                {
                    "output" : 21,
                    "interpolation" : "LINEAR",
                    "input" : 20
                }
            ],
            "channels" : [
                {
                    "target" : {
                        "node" : 4,
                        "path" : "rotation"
                    },
                    "sampler" : 0
                }
            ],
            "name" : "005_Layer:_01 Teren Trawa 004Action"
        }
    ],
    "materials" : [
        {
            "emissiveFactor" : [
                1,
                1,
                1
            ],
            "emissiveTexture" : {
                "index" : 0,
                "texCoord" : 0
            },
            "name" : "material_atlas_92811_1",
            "pbrMetallicRoughness" : {
                "metallicFactor" : 1,
                "roughnessFactor" : 1,
                "baseColorFactor" : [
                    1,
                    1,
                    1,
                    1
                ]
            }
        },
        {
            "emissiveFactor" : [
                1,
                1,
                1
            ],
            "emissiveTexture" : {
                "index" : 1,
                "texCoord" : 0
            },
            "name" : "material_atlas_69294_1",
            "pbrMetallicRoughness" : {
                "metallicFactor" : 1,
                "roughnessFactor" : 1,
                "baseColorFactor" : [
                    1,
                    1,
                    1,
                    1
                ]
            }
        },
        {
            "emissiveFactor" : [
                1,
                1,
                1
            ],
            "emissiveTexture" : {
                "index" : 2,
                "texCoord" : 0
            },
            "name" : "material_atlas_59463_1",
            "pbrMetallicRoughness" : {
                "metallicFactor" : 1,
                "roughnessFactor" : 1,
                "baseColorFactor" : [
                    1,
                    1,
                    1,
                    1
                ]
            }
        },
        {
            "emissiveFactor" : [
                1,
                1,
                1
            ],
            "emissiveTexture" : {
                "index" : 3,
                "texCoord" : 0
            },
            "name" : "material_atlas_44145_1_COLOR_0",
            "pbrMetallicRoughness" : {
                "metallicFactor" : 1,
                "roughnessFactor" : 1,
                "baseColorFactor" : [
                    1,
                    1,
                    1,
                    1
                ]
            }
        },
        {
            "emissiveFactor" : [
                1,
                1,
                1
            ],
            "emissiveTexture" : {
                "index" : 4,
                "texCoord" : 0
            },
            "name" : "material_atlas_36107_1",
            "pbrMetallicRoughness" : {
                "metallicFactor" : 1,
                "roughnessFactor" : 1,
                "baseColorFactor" : [
                    1,
                    1,
                    1,
                    1
                ]
            }
        }
    ],
    "meshes" : [
        {
            "primitives" : [
                {
                    "material" : 0,
                    "attributes" : {
                        "POSITION" : 0,
                        "NORMAL" : 1,
                        "TEXCOORD_0" : 2
                    },
                    "indices" : 3
                }
            ],
            "name" : "007_Layer:_01 ZEWN Putz003"
        },
        {
            "primitives" : [
                {
                    "material" : 1,
                    "attributes" : {
                        "POSITION" : 4,
                        "NORMAL" : 5,
                        "TEXCOORD_0" : 6
                    },
                    "indices" : 7
                }
            ],
            "name" : "crp_vm_v1_183Shape"
        },
        {
            "primitives" : [
                {
                    "material" : 2,
                    "attributes" : {
                        "POSITION" : 8,
                        "NORMAL" : 9,
                        "TEXCOORD_0" : 10
                    },
                    "indices" : 11
                }
            ],
            "name" : "crp_Porsche911carrera"
        },
        {
            "primitives" : [
                {
                    "material" : 3,
                    "attributes" : {
                        "POSITION" : 12,
                        "NORMAL" : 13,
                        "TEXCOORD_0" : 14
                    },
                    "indices" : 15
                }
            ],
            "name" : "crp_GrowFX371"
        },
        {
            "primitives" : [
                {
                    "material" : 4,
                    "attributes" : {
                        "POSITION" : 16,
                        "NORMAL" : 17,
                        "TEXCOORD_0" : 18
                    },
                    "indices" : 19
                }
            ],
            "name" : "005_Layer:_01 Teren Trawa 004"
        }
    ],
    "textures" : [
        {
            "source" : 0
        },
        {
            "source" : 1
        },
        {
            "source" : 2
        },
        {
            "source" : 3
        },
        {
            "source" : 4
        }
    ],
    "images" : [
        {
            "mimeType" : "image/jpeg",
            "uri" : "tylko_A_image_4.jpg",
            "name" : "tylko_A_image_4"
        },
        {
            "mimeType" : "image/jpeg",
            "uri" : "tylko_A_image_3.jpg",
            "name" : "tylko_A_image_3"
        },
        {
            "mimeType" : "image/jpeg",
            "uri" : "tylko_A_image_2.jpg",
            "name" : "tylko_A_image_2"
        },
        {
            "mimeType" : "image/jpeg",
            "uri" : "tylko_A_image_1.jpg",
            "name" : "tylko_A_image_1"
        },
        {
            "mimeType" : "image/jpeg",
            "uri" : "tylko_A_image_0.jpg",
            "name" : "tylko_A_image_0"
        }
    ],
    "accessors" : [
        {
            "bufferView" : 0,
            "type" : "VEC3",
            "max" : [
                60.83911895751953,
                48.651973724365234,
                3.800848960876465
            ],
            "min" : [
                -59.87109375,
                20.1676025390625,
                -21.211816787719727
            ],
            "count" : 293482,
            "componentType" : 5126
        },
        {
            "bufferView" : 1,
            "type" : "VEC3",
            "componentType" : 5126,
            "count" : 293482
        },
        {
            "bufferView" : 2,
            "type" : "VEC2",
            "componentType" : 5126,
            "count" : 293482
        },
        {
            "bufferView" : 3,
            "type" : "SCALAR",
            "componentType" : 5125,
            "count" : 415962
        },
        {
            "bufferView" : 4,
            "type" : "VEC3",
            "max" : [
                58.49636459350586,
                37.743141174316406,
                -1.204301118850708
            ],
            "min" : [
                -58.175323486328125,
                13.38689136505127,
                -15.482020378112793
            ],
            "count" : 168519,
            "componentType" : 5126
        },
        {
            "bufferView" : 5,
            "type" : "VEC3",
            "componentType" : 5126,
            "count" : 168519
        },
        {
            "bufferView" : 6,
            "type" : "VEC2",
            "componentType" : 5126,
            "count" : 168519
        },
        {
            "bufferView" : 7,
            "type" : "SCALAR",
            "componentType" : 5125,
            "count" : 333090
        },
        {
            "bufferView" : 8,
            "type" : "VEC3",
            "max" : [
                33.3229866027832,
                32.40394973754883,
                -11.548993110656738
            ],
            "min" : [
                28.783008575439453,
                22.00743293762207,
                -15.271334648132324
            ],
            "count" : 119987,
            "componentType" : 5126
        },
        {
            "bufferView" : 9,
            "type" : "VEC3",
            "componentType" : 5126,
            "count" : 119987
        },
        {
            "bufferView" : 10,
            "type" : "VEC2",
            "componentType" : 5126,
            "count" : 119987
        },
        {
            "bufferView" : 11,
            "type" : "SCALAR",
            "componentType" : 5125,
            "count" : 183411
        },
        {
            "bufferView" : 12,
            "type" : "VEC3",
            "max" : [
                66.77264404296875,
                47.928749084472656,
                3.6326589584350586
            ],
            "min" : [
                -66.43882751464844,
                3.8618671894073486,
                -19.19504737854004
            ],
            "count" : 15798,
            "componentType" : 5126
        },
        {
            "bufferView" : 13,
            "type" : "VEC3",
            "componentType" : 5126,
            "count" : 15798
        },
        {
            "bufferView" : 14,
            "type" : "VEC2",
            "componentType" : 5126,
            "count" : 15798
        },
        {
            "bufferView" : 15,
            "type" : "SCALAR",
            "componentType" : 5123,
            "count" : 39381
        },
        {
            "bufferView" : 16,
            "type" : "VEC3",
            "max" : [
                67.5062255859375,
                49.13200759887695,
                -5.142450332641602
            ],
            "min" : [
                -65.84105682373047,
                2.856248378753662,
                -19.14202117919922
            ],
            "count" : 14173,
            "componentType" : 5126
        },
        {
            "bufferView" : 17,
            "type" : "VEC3",
            "componentType" : 5126,
            "count" : 14173
        },
        {
            "bufferView" : 18,
            "type" : "VEC2",
            "componentType" : 5126,
            "count" : 14173
        },
        {
            "bufferView" : 19,
            "type" : "SCALAR",
            "componentType" : 5123,
            "count" : 18978
        },
        {
            "bufferView" : 20,
            "type" : "SCALAR",
            "max" : [
                1.6666666666666667
            ],
            "min" : [
                0
            ],
            "count" : 41,
            "componentType" : 5126
        },
        {
            "bufferView" : 21,
            "type" : "VEC4",
            "componentType" : 5126,
            "count" : 41
        }
    ],
    "bufferViews" : [
        {
            "byteOffset" : 0,
            "buffer" : 0,
            "byteLength" : 3521784
        },
        {
            "byteOffset" : 3521784,
            "buffer" : 0,
            "byteLength" : 3521784
        },
        {
            "byteOffset" : 7043568,
            "buffer" : 0,
            "byteLength" : 2347856
        },
        {
            "byteOffset" : 9391424,
            "buffer" : 0,
            "byteLength" : 1663848
        },
        {
            "byteOffset" : 11055272,
            "buffer" : 0,
            "byteLength" : 2022228
        },
        {
            "byteOffset" : 13077500,
            "buffer" : 0,
            "byteLength" : 2022228
        },
        {
            "byteOffset" : 15099728,
            "buffer" : 0,
            "byteLength" : 1348152
        },
        {
            "byteOffset" : 16447880,
            "buffer" : 0,
            "byteLength" : 1332360
        },
        {
            "byteOffset" : 17780240,
            "buffer" : 0,
            "byteLength" : 1439844
        },
        {
            "byteOffset" : 19220084,
            "buffer" : 0,
            "byteLength" : 1439844
        },
        {
            "byteOffset" : 20659928,
            "buffer" : 0,
            "byteLength" : 959896
        },
        {
            "byteOffset" : 21619824,
            "buffer" : 0,
            "byteLength" : 733644
        },
        {
            "byteOffset" : 22353468,
            "buffer" : 0,
            "byteLength" : 189576
        },
        {
            "byteOffset" : 22543044,
            "buffer" : 0,
            "byteLength" : 189576
        },
        {
            "byteOffset" : 22732620,
            "buffer" : 0,
            "byteLength" : 126384
        },
        {
            "byteOffset" : 22859004,
            "buffer" : 0,
            "byteLength" : 78762
        },
        {
            "byteOffset" : 22937768,
            "buffer" : 0,
            "byteLength" : 170076
        },
        {
            "byteOffset" : 23107844,
            "buffer" : 0,
            "byteLength" : 170076
        },
        {
            "byteOffset" : 23277920,
            "buffer" : 0,
            "byteLength" : 113384
        },
        {
            "byteOffset" : 23391304,
            "buffer" : 0,
            "byteLength" : 37956
        },
        {
            "byteOffset" : 23429260,
            "buffer" : 0,
            "byteLength" : 164
        },
        {
            "byteOffset" : 23429424,
            "buffer" : 0,
            "byteLength" : 656
        }
    ],
    "buffers" : [
        {
            "uri" : "tylko_A.bin",
            "byteLength" : 23430080
        }
    ]
}
