{
	"accessors": [
		{
			"bufferView": 0,
			"byteOffset": 0,
			"componentType": 5126,
			"count": 513271,
			"max": [
				95.45024871826172,
				22.99456214904785,
				6.21370792388916
			],
			"min": [
				-19.766185760498047,
				-75.46316528320313,
				-6.262509346008301
			],
			"type": "VEC3"
		},
		{
			"bufferView": 1,
			"byteOffset": 0,
			"componentType": 5126,
			"count": 513271,
			"type": "VEC3"
		},
		{
			"bufferView": 2,
			"byteOffset": 0,
			"componentType": 5126,
			"count": 513271,
			"type": "VEC2"
		},
		{
			"bufferView": 3,
			"byteOffset": 0,
			"componentType": 5125,
			"count": 969015,
			"type": "SCALAR"
		},
		{
			"bufferView": 4,
			"byteOffset": 0,
			"componentType": 5126,
			"count": 461045,
			"max": [
				19.091903686523438,
				50.2426872253418,
				0.13980615139007568
			],
			"min": [
				-9.560461044311523,
				-80.72217559814453,
				-6.798377990722656
			],
			"type": "VEC3"
		},
		{
			"bufferView": 5,
			"byteOffset": 0,
			"componentType": 5126,
			"count": 461045,
			"type": "VEC3"
		},
		{
			"bufferView": 6,
			"byteOffset": 0,
			"componentType": 5126,
			"count": 461045,
			"type": "VEC2"
		},
		{
			"bufferView": 7,
			"byteOffset": 0,
			"componentType": 5123,
			"count": 461045,
			"type": "VEC4"
		},
		{
			"bufferView": 8,
			"byteOffset": 0,
			"componentType": 5126,
			"count": 461045,
			"type": "VEC4"
		},
		{
			"bufferView": 9,
			"byteOffset": 0,
			"componentType": 5125,
			"count": 921270,
			"type": "SCALAR"
		},
		{
			"bufferView": 10,
			"byteOffset": 0,
			"componentType": 5126,
			"count": 265340,
			"max": [
				0.07650214433670044,
				0.01644616760313511,
				-3.430975993978791e-05
			],
			"min": [
				-0.0009704688563942909,
				-0.009667331352829933,
				-0.0018147655064240098
			],
			"type": "VEC3"
		},
		{
			"bufferView": 11,
			"byteOffset": 0,
			"componentType": 5126,
			"count": 265340,
			"type": "VEC3"
		},
		{
			"bufferView": 12,
			"byteOffset": 0,
			"componentType": 5126,
			"count": 265340,
			"type": "VEC2"
		},
		{
			"bufferView": 13,
			"byteOffset": 0,
			"componentType": 5123,
			"count": 265340,
			"type": "VEC4"
		},
		{
			"bufferView": 14,
			"byteOffset": 0,
			"componentType": 5126,
			"count": 265340,
			"type": "VEC4"
		},
		{
			"bufferView": 15,
			"byteOffset": 0,
			"componentType": 5125,
			"count": 463461,
			"type": "SCALAR"
		},
		{
			"bufferView": 16,
			"byteOffset": 0,
			"componentType": 5126,
			"count": 112984,
			"max": [
				40.94496154785156,
				59.060672760009766,
				5.7946085929870605
			],
			"min": [
				-65.69453430175781,
				-64.9205093383789,
				-11.633427619934082
			],
			"type": "VEC3"
		},
		{
			"bufferView": 17,
			"byteOffset": 0,
			"componentType": 5126,
			"count": 112984,
			"type": "VEC3"
		},
		{
			"bufferView": 18,
			"byteOffset": 0,
			"componentType": 5126,
			"count": 112984,
			"type": "VEC2"
		},
		{
			"bufferView": 19,
			"byteOffset": 0,
			"componentType": 5126,
			"count": 112984,
			"type": "VEC4"
		},
		{
			"bufferView": 20,
			"byteOffset": 0,
			"componentType": 5125,
			"count": 177510,
			"type": "SCALAR"
		},
		{
			"bufferView": 21,
			"byteOffset": 0,
			"componentType": 5126,
			"count": 49746,
			"max": [
				64.97608947753906,
				60.53915786743164,
				0.47490382194519043
			],
			"min": [
				-66.0202407836914,
				-51.86830139160156,
				-6.260422229766846
			],
			"type": "VEC3"
		},
		{
			"bufferView": 22,
			"byteOffset": 0,
			"componentType": 5126,
			"count": 49746,
			"type": "VEC3"
		},
		{
			"bufferView": 23,
			"byteOffset": 0,
			"componentType": 5126,
			"count": 49746,
			"type": "VEC2"
		},
		{
			"bufferView": 24,
			"byteOffset": 0,
			"componentType": 5123,
			"count": 72891,
			"type": "SCALAR"
		}
	],
	"asset": {
		"generator": "Gestaltor 2020.2.1 Alpha 'Zuckerwatte' (CI-38fb8ee1*)",
		"version": "2.0"
	},
	"bufferViews": [
		{
			"buffer": 0,
			"byteLength": 6159252,
			"byteOffset": 0
		},
		{
			"buffer": 0,
			"byteLength": 6159252,
			"byteOffset": 6159252
		},
		{
			"buffer": 0,
			"byteLength": 4106168,
			"byteOffset": 12318504
		},
		{
			"buffer": 0,
			"byteLength": 3876060,
			"byteOffset": 16424672
		},
		{
			"buffer": 0,
			"byteLength": 5532540,
			"byteOffset": 20300732
		},
		{
			"buffer": 0,
			"byteLength": 5532540,
			"byteOffset": 25833272
		},
		{
			"buffer": 0,
			"byteLength": 3688360,
			"byteOffset": 31365812
		},
		{
			"buffer": 0,
			"byteLength": 3688360,
			"byteOffset": 35054172
		},
		{
			"buffer": 0,
			"byteLength": 7376720,
			"byteOffset": 38742532
		},
		{
			"buffer": 0,
			"byteLength": 3685080,
			"byteOffset": 46119252
		},
		{
			"buffer": 0,
			"byteLength": 3184080,
			"byteOffset": 49804332
		},
		{
			"buffer": 0,
			"byteLength": 3184080,
			"byteOffset": 52988412
		},
		{
			"buffer": 0,
			"byteLength": 2122720,
			"byteOffset": 56172492
		},
		{
			"buffer": 0,
			"byteLength": 2122720,
			"byteOffset": 58295212
		},
		{
			"buffer": 0,
			"byteLength": 4245440,
			"byteOffset": 60417932
		},
		{
			"buffer": 0,
			"byteLength": 1853844,
			"byteOffset": 64663372
		},
		{
			"buffer": 0,
			"byteLength": 1355808,
			"byteOffset": 66517216
		},
		{
			"buffer": 0,
			"byteLength": 1355808,
			"byteOffset": 67873024
		},
		{
			"buffer": 0,
			"byteLength": 903872,
			"byteOffset": 69228832
		},
		{
			"buffer": 0,
			"byteLength": 1807744,
			"byteOffset": 70132704
		},
		{
			"buffer": 0,
			"byteLength": 710040,
			"byteOffset": 71940448
		},
		{
			"buffer": 0,
			"byteLength": 596952,
			"byteOffset": 72650488
		},
		{
			"buffer": 0,
			"byteLength": 596952,
			"byteOffset": 73247440
		},
		{
			"buffer": 0,
			"byteLength": 397968,
			"byteOffset": 73844392
		},
		{
			"buffer": 0,
			"byteLength": 145782,
			"byteOffset": 74242360
		}
	],
	"buffers": [
		{
			"byteLength": 74388142,
			"uri": "calosc.bin"
		}
	],
	"extensionsRequired": [
		"KHR_materials_unlit"
	],
	"extensionsUsed": [
		"KHR_materials_unlit"
	],
	"images": [
		{
			"mimeType": "image/png",
			"name": "calosc_image_0",
			"uri": "calosc_image_0.png"
		},
		{
			"mimeType": "image/png",
			"name": "calosc_image_1",
			"uri": "calosc_image_1.png"
		},
		{
			"mimeType": "image/png",
			"name": "calosc_image_2",
			"uri": "calosc_image_2.png"
		},
		{
			"mimeType": "image/png",
			"name": "calosc_image_3",
			"uri": "calosc_image_3.png"
		},
		{
			"mimeType": "image/png",
			"name": "calosc_image_4",
			"uri": "calosc_image_4.png"
		}
	],
	"materials": [
		{
			"alphaCutoff": 0.5,
			"alphaMode": "MASK",
			"emissiveFactor": [
				0.0,
				0.0,
				0.0
			],
			"extensions": {
				"KHR_materials_unlit": {}
			},
			"name": "material_atlas_92811_1",
			"pbrMetallicRoughness": {
				"baseColorTexture": {
					"index": 0,
					"texCoord": 0
				},
				"metallicFactor": 0.0,
				"roughnessFactor": 0.5
			}
		},
		{
			"alphaCutoff": 0.5,
			"alphaMode": "OPAQUE",
			"emissiveFactor": [
				0.0,
				0.0,
				0.0
			],
			"extensions": {
				"KHR_materials_unlit": {}
			},
			"name": "material_atlas_69294_1",
			"pbrMetallicRoughness": {
				"baseColorTexture": {
					"index": 1,
					"texCoord": 0
				},
				"metallicFactor": 0.0,
				"roughnessFactor": 0.5
			}
		},
		{
			"alphaCutoff": 0.5,
			"alphaMode": "OPAQUE",
			"emissiveFactor": [
				0.0,
				0.0,
				0.0
			],
			"extensions": {
				"KHR_materials_unlit": {}
			},
			"name": "material_atlas_59463_1",
			"pbrMetallicRoughness": {
				"baseColorTexture": {
					"index": 2,
					"texCoord": 0
				},
				"metallicFactor": 0.0,
				"roughnessFactor": 0.5
			}
		},
		{
			"alphaCutoff": 0.5,
			"alphaMode": "MASK",
			"emissiveFactor": [
				0.0,
				0.0,
				0.0
			],
			"extensions": {
				"KHR_materials_unlit": {}
			},
			"name": "material_atlas_44145_1",
			"pbrMetallicRoughness": {
				"baseColorTexture": {
					"index": 3,
					"texCoord": 0
				},
				"metallicFactor": 0.0,
				"roughnessFactor": 0.5
			}
		},
		{
			"alphaCutoff": 0.5,
			"alphaMode": "OPAQUE",
			"emissiveFactor": [
				0.0,
				0.0,
				0.0
			],
			"extensions": {
				"KHR_materials_unlit": {}
			},
			"name": "material_atlas_36107_1",
			"pbrMetallicRoughness": {
				"baseColorTexture": {
					"index": 4,
					"texCoord": 0
				},
				"metallicFactor": 0.0,
				"roughnessFactor": 0.5
			}
		}
	],
	"meshes": [
		{
			"name": "007_Layer:_01 ZEWN Putz003",
			"primitives": [
				{
					"attributes": {
						"NORMAL": 1,
						"POSITION": 0,
						"TEXCOORD_0": 2
					},
					"indices": 3,
					"material": 0,
					"mode": 4
				}
			]
		},
		{
			"name": "crp_vm_v1_183Shape",
			"primitives": [
				{
					"attributes": {
						"JOINTS_0": 7,
						"NORMAL": 5,
						"POSITION": 4,
						"TEXCOORD_0": 6,
						"WEIGHTS_0": 8
					},
					"indices": 9,
					"material": 1,
					"mode": 4
				}
			]
		},
		{
			"name": "crp_Porsche911carrera",
			"primitives": [
				{
					"attributes": {
						"JOINTS_0": 13,
						"NORMAL": 11,
						"POSITION": 10,
						"TEXCOORD_0": 12,
						"WEIGHTS_0": 14
					},
					"indices": 15,
					"material": 2,
					"mode": 4
				}
			]
		},
		{
			"name": "crp_GrowFX371",
			"primitives": [
				{
					"attributes": {
						"COLOR_0": 19,
						"NORMAL": 17,
						"POSITION": 16,
						"TEXCOORD_0": 18
					},
					"indices": 20,
					"material": 3,
					"mode": 4
				}
			]
		},
		{
			"name": "005_Layer:_01 Teren Trawa 004",
			"primitives": [
				{
					"attributes": {
						"NORMAL": 22,
						"POSITION": 21,
						"TEXCOORD_0": 23
					},
					"indices": 24,
					"material": 4,
					"mode": 4
				}
			]
		}
	],
	"nodes": [
		{
			"mesh": 0,
			"name": "007_Layer:_01 ZEWN Putz003",
			"rotation": [
				0.2659718096256256,
				0.6551789045333862,
				-0.6551783680915833,
				0.26597166061401367
			],
			"scale": [
				0.9999427795410156,
				0.9999422430992126,
				0.999941349029541
			],
			"translation": [
				45.087379455566406,
				3.085402488708496,
				7.028754234313965
			]
		},
		{
			"mesh": 1,
			"name": "crp_vm_v1_183Shape",
			"rotation": [
				0.5005699992179871,
				-0.49942928552627563,
				0.4994290769100189,
				0.5005704760551453
			],
			"scale": [
				0.9999424815177917,
				0.9999424815177917,
				0.999941349029541
			],
			"translation": [
				-13.098258972167969,
				0.09925022721290588,
				-7.181713104248047
			]
		},
		{
			"mesh": 2,
			"name": "crp_Porsche911carrera",
			"rotation": [
				0.009529816918075085,
				0.7070425152778625,
				-0.7070425748825073,
				0.009529812261462212
			],
			"scale": [
				999.7100830078125,
				999.710205078125,
				999.7097778320313
			],
			"translation": [
				54.75469207763672,
				0.018094956874847412,
				4.323505401611328
			]
		},
		{
			"mesh": 3,
			"name": "crp_GrowFX371",
			"rotation": [
				0.6491677761077881,
				-0.34192410111427307,
				0.3437892198562622,
				0.58607017993927
			],
			"scale": [
				0.9997105002403259,
				0.9997103214263916,
				0.9997096657752991
			],
			"translation": [
				3.7294998168945313,
				-0.03626734018325806,
				13.060005187988281
			]
		},
		{
			"mesh": 4,
			"name": "005_Layer:_01 Teren Trawa 004",
			"rotation": [
				0.2659641206264496,
				0.6551817059516907,
				-0.6551817655563354,
				0.2659640610218048
			],
			"scale": [
				0.9997103214263916,
				0.9997101426124573,
				0.9997097253799438
			],
			"translation": [
				-1.8242568969726563,
				-1.375535488128662,
				4.678684234619141
			]
		}
	],
	"scene": 0,
	"scenes": [
		{
			"name": "Scene",
			"nodes": [
				0,
				1,
				2,
				3,
				4
			]
		}
	],
	"textures": [
		{
			"source": 0
		},
		{
			"source": 1
		},
		{
			"source": 2
		},
		{
			"source": 3
		},
		{
			"source": 4
		}
	]
}